<svg width="1108" height="346" viewBox="0 0 1108 346" fill="none" xmlns="http://www.w3.org/2000/svg">
<circle cx="384.669" cy="235" r="102.488" fill="#F6F9FC"/>
<circle cx="384.669" cy="235" r="111.5" stroke="#F6F9FC" stroke-width="3"/>
<path d="M320.051 32.0976C319.702 32.0976 319.372 31.8991 319.197 31.5815L314.46 22.6684L305.782 17.785C305.471 17.6064 305.277 17.2689 305.277 16.9116C305.277 16.5543 305.471 16.2168 305.782 16.0381L314.499 11.1945L319.275 2.32106C319.449 2.00344 319.779 1.80493 320.129 1.80493C320.478 1.80493 320.808 2.00344 320.983 2.32106L325.72 11.2342L334.398 16.1175C334.709 16.2962 334.903 16.6337 334.903 16.991C334.903 17.3483 334.709 17.6858 334.398 17.8644L325.681 22.7081L320.905 31.5815C320.731 31.8991 320.401 32.0976 320.051 32.0976ZM308.267 16.9314L315.644 21.0803C315.8 21.1795 315.936 21.3185 316.033 21.4773L320.051 29.0406L324.109 21.4972C324.206 21.3384 324.342 21.1994 324.497 21.1001L331.894 16.991L324.516 12.8421C324.361 12.7429 324.225 12.6039 324.128 12.4451L320.109 4.88184L316.052 12.4252C315.955 12.584 315.819 12.723 315.664 12.8223L308.267 16.9314Z" fill="#3E4156" stroke="#F1F6FA" stroke-width="2"/>
<path d="M347.111 51.1952C346.852 51.1952 346.608 51.0485 346.479 50.8137L342.978 44.2257L336.564 40.6163C336.334 40.4842 336.191 40.2348 336.191 39.9707C336.191 39.7066 336.334 39.4572 336.564 39.3251L343.007 35.745L346.537 29.1864C346.666 28.9517 346.91 28.8049 347.168 28.8049C347.426 28.8049 347.67 28.9517 347.799 29.1864L351.301 35.7744L357.715 39.3838C357.944 39.5159 358.088 39.7653 358.088 40.0294C358.088 40.2935 357.944 40.5429 357.715 40.675L351.272 44.2551L347.742 50.8137C347.613 51.0485 347.369 51.1952 347.111 51.1952ZM338.401 39.9854L343.853 43.0519C343.968 43.1253 344.069 43.228 344.14 43.3454L347.111 48.9356L350.11 43.3601C350.181 43.2427 350.282 43.14 350.397 43.0666L355.864 40.0294L350.411 36.9628C350.296 36.8895 350.196 36.7868 350.124 36.6694L347.154 31.0792L344.155 36.6547C344.083 36.7721 343.982 36.8748 343.868 36.9482L338.401 39.9854Z" fill="#3E4156" stroke="#F1F6FA" stroke-width="1.5"/>
<path d="M1109.48 319.592L1062.4 294.58L1062.9 348.634L1039.33 347.103L1050.94 294.062L999.773 312.8L995.19 289.919L1048.77 282.757L1017.35 239.696L1037.88 227.496L1058.63 275.966L1090.8 230.255L1108.43 245.541L1067.73 283.859L1118.96 297.801L1109.52 319.625L1109.48 319.592Z" fill="#F6F9FC"/>
<g opacity="0.3" clip-path="url(#clip0_8_560)">
<path d="M41.8213 235.187L28.5896 259.274L11.4276 250.132L4.47432 264.175L34.7531 279.361L47.2881 255.255L71.2726 267.926L88.0346 237.387L74.744 229.981L64.9755 247.407L41.8213 235.187Z" fill="#E0EBF4"/>
<path d="M4.47367 264.174L8.26617 276.602L38.3093 292.577L34.7524 279.36L4.47367 264.174Z" fill="#B3CCE0"/>
<path d="M47.2882 255.254L51.6951 268.196L38.3101 292.577L34.7532 279.36L47.2882 255.254Z" fill="#89A1B5"/>
<path d="M47.2894 255.253L51.6963 268.196L76.0351 280.521L71.2739 267.925L47.2894 255.253Z" fill="#B3CCE0"/>
<path d="M88.0339 237.387L92.0059 250.83L76.0331 280.523L71.2719 267.927L88.0339 237.387Z" fill="#89A1B5"/>
</g>
<defs>
<clipPath id="clip0_8_560">
<rect width="72.7253" height="71.8253" fill="white" transform="matrix(0.461351 -0.887218 0.878548 0.477653 0 272.108)"/>
</clipPath>
</defs>
</svg>
