<svg xmlns="http://www.w3.org/2000/svg" xmlns:svgjs="http://svgjs.com/svgjs" xmlns:xlink="http://www.w3.org/1999/xlink" width="28" height="25"><svg xmlns="http://www.w3.org/2000/svg" width="28" height="25" viewBox="0 0 28 18"><path fill="#35979c" d="M27.677 7.808A15.827 15.827 0 0 0 14 0 15.827 15.827 0 0 0 .323 7.808a2.36 2.36 0 0 0 0 2.384A15.827 15.827 0 0 0 14 18c5.827 0 10.937-3.13 13.677-7.808a2.36 2.36 0 0 0 0-2.384zM14 15.652c-3.654 0-6.611-2.975-6.611-6.652 0-3.676 2.957-6.652 6.611-6.652S20.611 5.323 20.611 9c0 3.676-2.957 6.652-6.611 6.652zM19.056 9c0 2.81-2.264 5.087-5.056 5.087-2.792 0-5.056-2.278-5.056-5.087 0-.866.216-1.682.595-2.395v.001c0 1.157.932 2.095 2.082 2.095s2.082-.938 2.082-2.095a2.088 2.088 0 0 0-2.082-2.095h-.002A5.008 5.008 0 0 1 14 3.914c2.792 0 5.056 2.278 5.056 5.087z" class="colorE10600 svgShape"/></svg></svg>